<svg id="ARTWORK" xmlns="http://www.w3.org/2000/svg" width="151.58mm" height="41.75mm" viewBox="0 0 429.67 118.33"><defs><style>.cls-1{fill:#da291c;}</style></defs><title>ReddB_Logo_Horiz_ColPos_RGB-01</title><path class="cls-1" d="M102.47,29.75c4.77-5.64,6.88-8.24,6.43-9.66a4.88,4.88,0,0,0-3.13-2.64c-1.8-.68-4.26-1-5.5-.27A19.28,19.28,0,0,0,97.57,20l-1.51,1.7h0c-1-1-2-2-3-2.83a51.25,51.25,0,0,0-25.87-12c-3.88-4.12-8.94-6-13.93-5.26a15.26,15.26,0,0,0-10.39,7A57.56,57.56,0,0,0,17.22,24.93h0c-1.57-.47-5,.14-7.16,1.32A3.63,3.63,0,0,0,8,28.6c-.12.67.15,1.71,2.83,4.77h0A56.68,56.68,0,0,0,2.39,70,51.8,51.8,0,0,0,19.7,103.08a51.17,51.17,0,0,0,11.2,7.42,63.14,63.14,0,0,0,58.87-2.06h0A3.21,3.21,0,0,0,91,104.18l-.22-.49c-3-6.64-12-26.86-7-45.3C86,50.68,92,42.45,97.25,36h0a50.34,50.34,0,0,1,8,29.06,46,46,0,0,1-9.17,26,1.09,1.09,0,0,0-.24.77,1.07,1.07,0,0,0,.08.34l.59,1.27a1.09,1.09,0,0,0,1.84.23h0C113.15,74.94,114.92,49.11,102.47,29.75ZM37,73.36a104.42,104.42,0,0,0-1.34,30.75h0A52.2,52.2,0,0,1,25,96.94,51.18,51.18,0,0,1,8.23,67.45a47.45,47.45,0,0,1,5.09-31.36h0c2,2.07,4.38,4.46,6.9,6.95C26.37,49.13,33.34,56,36.73,61c2,2.85,1.35,6.45.34,12.41M90.51,27.63C79.19,39,68.52,45.2,58.79,45.93c-7.48.56-15.4-1.66-23.54-6.63a90.77,90.77,0,0,1-15-11.93l-.32-.3h0A46.2,46.2,0,0,1,40.35,14.39h0A23.12,23.12,0,0,0,39.88,24a21.81,21.81,0,0,0,8.35,14.3,14.64,14.64,0,0,0,20.55-2.51q.31-.39.59-.81a21.81,21.81,0,0,0,3.55-16.18,24.18,24.18,0,0,0-.73-3.2h0A51.57,51.57,0,0,1,87.73,25C88.67,25.83,89.61,26.71,90.51,27.63Z"/><path d="M289.15,40.27c8.91,0,12.5,5.25,12.5,9.46a8.54,8.54,0,0,1-5.14,7.52c5.37,1.38,8,5.26,8,9.68S302.2,78,291.2,78H272.83V40.27Zm-6.91,15h4.93c3.43,0,4.81-2.1,4.81-4.09s-1.38-4-4.81-4h-4.93Zm0,15.82h5.31c5.2,0,7-1.38,7-4.65,0-2.77-2.43-4.26-5.75-4.26h-6.58Z"/><path d="M335.44,69.12V52.45h-8v1.23a13,13,0,0,0-6.7-1.72c-8.58,0-12.34,7.15-12.34,13.29,0,5.54,3.48,13.24,12.12,13.24a10,10,0,0,0,7.58-3.15,7.6,7.6,0,0,0,5,3.15l5.71-3.82C335.89,74,335.44,71.44,335.44,69.12Zm-8,1.88a6.45,6.45,0,0,1-4.5,1.71c-4.47,0-6.24-3.54-6.24-6.92,0-3.66,1.55-8.48,6.09-8.48a8.68,8.68,0,0,1,4.66,1.45Z"/><path d="M384,52a10.06,10.06,0,0,0-8.19,4.26V52.45h-8V78h8V62.82A5,5,0,0,1,381,57.87h.22c2.49,0,4.15,1.78,4.15,5.6V78h8V61.76C393.35,54.83,388.64,52,384,52Z"/><path d="M350.91,52.45h-8V78h8V66.78c0-4.75,2.48-7.25,6.6-7.25,1.26,0,2.64.54,4.75,1.87l2.22-7.08c-2.32-1.71-3.71-2.32-5.31-2.32-2.58,0-6.3,1.43-8.26,6.39Z"/><path d="M424.39,69.12V52.45h-8v1.23a13,13,0,0,0-6.7-1.72c-8.58,0-12.34,7.15-12.34,13.29,0,5.54,3.48,13.24,12.12,13.24a10,10,0,0,0,7.58-3.15,7.6,7.6,0,0,0,5,3.15l5.71-3.82C424.84,74,424.39,71.44,424.39,69.12Zm-8,1.88a6.45,6.45,0,0,1-4.5,1.71c-4.47,0-6.24-3.54-6.24-6.92,0-3.66,1.55-8.48,6.09-8.48a8.68,8.68,0,0,1,4.66,1.45Z"/><path d="M149.21,40.27c7.74,0,12.34,5.2,12.34,10.84,0,4.15-2.16,7.25-6.47,9.24,3.87,1.94,5,6.58,10.34,17.64H155.07c-4-8.08-5.53-15.32-10.62-15.32h-2.71V78h-9.4V40.27Zm-7.46,15.49h5c2.6,0,5.14-1.11,5.14-4.31,0-2.82-1.82-4.26-5.37-4.26h-4.76Z"/><path d="M256.24,78h-8V76a10.46,10.46,0,0,1-7.1,2.46c-6.86,0-11.95-5.64-11.95-13.27,0-7.8,5.09-13.22,12.39-13.22a14.86,14.86,0,0,1,6.64,1.61V40.27h8Zm-8-19.14a8.67,8.67,0,0,0-4.48-1.49c-4,0-6.42,2.93-6.42,8,0,4.64,2.38,7.74,6.14,7.74a6.72,6.72,0,0,0,4.76-2.1Z"/><path d="M224.57,78h-8V76a10.45,10.45,0,0,1-7.1,2.46c-6.86,0-11.95-5.64-11.95-13.27,0-7.8,5.09-13.22,12.39-13.22a14.86,14.86,0,0,1,6.64,1.61V40.27h8Zm-8-19.14a8.67,8.67,0,0,0-4.48-1.49c-4,0-6.42,2.93-6.42,8,0,4.64,2.38,7.74,6.14,7.74a6.72,6.72,0,0,0,4.76-2.1Z"/><path d="M174.9,66.55h18.33C193.61,57.25,187.47,52,180,52c-7.86,0-13.45,5.54-13.45,13.34,0,8,5.81,13.19,14.78,13.19a18.5,18.5,0,0,0,11.41-3.38v-5c-3.77,2.71-6.26,3.65-9.47,3.65C178.28,73.74,175.19,71.08,174.9,66.55Zm5.7-9.79c3.1,0,5.2,2.08,5.53,5.58H175.07C175.4,58.8,177.45,56.76,180.6,56.76Z"/></svg>